<?xml version="1.0" encoding="iso-8859-1"?>
<!-- Generator: Adobe Illustrator 19.0.0, SVG Export Plug-In . SVG Version: 6.00 Build 0)  -->
<svg version="1.1" id="Capa_1" xmlns="http://www.w3.org/2000/svg" xmlns:xlink="http://www.w3.org/1999/xlink" x="0px" y="0px"
	 viewBox="0 0 511.999 511.999" style="enable-background:new 0 0 511.999 511.999;" xml:space="preserve">
<circle style="fill:#63D38E;" cx="255.999" cy="255.999" r="255.999"/>
<path style="fill:#A9DEA4;" d="M459.588,203.585c0,46.958-15.896,90.201-42.604,124.644c-37.243,48.03-95.502,78.941-160.982,78.941
	s-123.738-30.911-160.982-78.941c-26.706-34.443-42.604-77.686-42.604-124.644c0-112.437,91.147-203.584,203.584-203.584
	S459.588,91.148,459.588,203.585z"/>
<path style="fill:#F7EFC6;" d="M437.843,399.108c0,14.378-1.672,28.369-4.817,41.796c-4.441,4.263-9.028,8.359-13.772,12.278
	c-2.832,2.351-5.726,4.65-8.673,6.886c-12.507,9.477-25.903,17.847-40.04,24.931c-34.461,17.283-73.362,27-114.541,27
	c-27.397,0-53.791-4.305-78.534-12.278c-2.111-0.679-4.211-1.39-6.301-2.121c-0.522-0.188-1.034-0.366-1.557-0.554
	c-5.548-1.996-11.013-4.169-16.384-6.52c-18.526-8.119-35.903-18.38-51.816-30.459c-2.926-2.215-5.81-4.504-8.631-6.844
	c-4.754-3.929-9.352-8.035-13.793-12.298c-3.166-13.416-4.838-27.429-4.838-41.817c0-18.181,2.664-35.725,7.638-52.287
	c22.465-74.94,91.961-129.557,174.215-129.557C356.424,217.265,437.843,298.683,437.843,399.108z"/>
<path style="fill:#F0BF75;" d="M151.113,346.832c-2.999,16.551-4.608,34.105-4.608,52.287c0,19.654,1.881,38.588,5.36,56.309
	c2.696,13.814,6.374,26.896,10.877,39.037c-3.208-1.254-6.374-2.56-9.519-3.939c-18.526-8.119-35.903-18.38-51.816-30.459
	c-2.926-2.215-5.81-4.504-8.631-6.844c-4.754-3.929-9.352-8.035-13.793-12.298c-3.166-13.416-4.838-27.418-4.838-41.806
	c0-18.181,2.664-35.735,7.638-52.287c22.465-74.95,91.961-129.567,174.215-129.567C206.482,217.265,164.623,271.882,151.113,346.832
	z"/>
<path style="fill:#FFD255;" d="M439.786,434.196c-0.92,0.94-1.839,1.881-2.769,2.8c-8.276,8.286-17.105,15.987-26.436,23.071
	c-42.956,32.59-96.507,51.931-154.582,51.931c-30.323,0-59.402-5.266-86.392-14.952c-5.548-1.996-11.013-4.169-16.384-6.52
	c-18.526-8.119-35.903-18.38-51.816-30.459C91,452.179,81.22,443.506,72.171,434.144l37.303-5.872l141.165-22.246L439.786,434.196z"
	/>
<g>
	<polygon style="fill:#F2973D;" points="255.996,406.83 252.12,406.255 252.918,406.033 	"/>
	<path style="fill:#F2973D;" d="M439.786,434.196c-0.92,0.94-1.839,1.881-2.769,2.8c-8.276,8.286-17.105,15.987-26.436,23.071
		c-12.507,9.477-25.903,17.847-40.04,24.931H205.029c-12.988,0-24.806,4.765-33.865,12.601c-0.522-0.188-1.034-0.366-1.557-0.554
		c-5.548-1.996-11.013-4.169-16.384-6.52c-18.526-8.119-35.903-18.38-51.816-30.459C91,452.179,81.22,443.506,72.171,434.144
		l178.468-28.118L439.786,434.196z"/>
</g>
<path style="fill:#FFD255;" d="M468.145,399.307c-7.952,11.755-16.865,22.821-26.613,33.071c-0.575,0.606-1.16,1.212-1.745,1.818
	c-0.324,0.334-0.658,0.669-0.982,1.003H73.205c-0.345-0.345-0.69-0.7-1.034-1.055c-0.585-0.585-1.149-1.17-1.703-1.755
	c-9.759-10.25-18.672-21.316-26.624-33.081c5.81-15.381,20.668-26.321,38.086-26.321h348.128c11.243,0,21.42,4.556,28.787,11.922
	C462.889,388.962,466.086,393.853,468.145,399.307z"/>
<path style="fill:#F2973D;" d="M144.07,435.199H73.205c-0.345-0.345-0.69-0.7-1.034-1.055c-0.585-0.585-1.149-1.17-1.703-1.755
	c-9.759-10.25-18.672-21.316-26.624-33.081c5.81-15.381,20.668-26.321,38.086-26.321h81.345c-22.476,0-40.709,18.233-40.709,40.709
	C122.566,425.576,132.2,435.199,144.07,435.199z"/>
<path style="fill:#F7EFC6;" d="M347.543,435.202L347.543,435.202c-17.839,0-32.301-14.461-32.301-32.301v-49.5h64.602v49.5
	C379.844,420.741,365.382,435.202,347.543,435.202z"/>
<path style="fill:#F74C83;" d="M256.004,117.31c-31.347-31.347-76.277,11.163-76.277,53.29s34.15,76.277,76.277,76.277
	s76.277-34.15,76.277-76.277S287.351,85.964,256.004,117.31z"/>
<path style="fill:#E21C59;" d="M256.004,246.878c-42.13,0-76.277-34.147-76.277-76.277c0-34.711,30.49-69.674,58.765-63.383
	c-13.27,4.953-25.328,34.262-25.328,63.383C213.163,212.73,232.347,246.878,256.004,246.878z"/>
<path style="fill:#AA583F;" d="M256.01,125.147c-0.149,0-0.299-0.004-0.448-0.013c-4.322-0.243-7.627-3.944-7.383-8.266
	c0.052-0.932,1.403-23.109,11.393-47.851c13.539-33.532,36.521-55.579,66.465-63.757c4.177-1.139,8.485,1.32,9.625,5.495
	s-1.32,8.485-5.495,9.625c-61.089,16.685-66.292,96.566-66.338,97.372C263.592,121.923,260.136,125.147,256.01,125.147z"/>
<path style="fill:#63D38E;" d="M247.927,69.692v22.54h-22.549c-38.479,0-69.684-31.204-69.684-69.684V0h22.54
	C216.723,0,247.927,31.204,247.927,69.692z"/>
<path style="fill:#50B566;" d="M247.927,92.233h-22.549c-38.479,0-69.684-31.204-69.684-69.684V0.008L247.927,92.233z"/>
<ellipse style="fill:#F7EFC6;" cx="255.999" cy="264.641" rx="47.02" ry="32.737"/>
<g>
</g>
<g>
</g>
<g>
</g>
<g>
</g>
<g>
</g>
<g>
</g>
<g>
</g>
<g>
</g>
<g>
</g>
<g>
</g>
<g>
</g>
<g>
</g>
<g>
</g>
<g>
</g>
<g>
</g>
</svg>
